<svg width="173" height="27" viewBox="0 0 173 27" fill="none" xmlns="http://www.w3.org/2000/svg">
<g clip-path="url(#clip0_577_26121)">
<path d="M13.0101 0.348354C20.1905 0.332768 26.0184 6.19144 26.0184 13.3513C26.0184 20.3314 20.4106 26.3582 12.9848 26.3484C5.74328 26.339 -0.0258161 20.5147 -0.00212456 13.3051C0.0221904 5.98445 5.97812 0.327572 13.0101 0.348354ZM12.9931 22.4966C17.9558 22.5382 22.1559 18.4967 22.1746 13.3804C22.1933 8.29043 18.0608 4.21798 13.0629 4.1893C8.07731 4.16062 3.83569 8.1541 3.84047 13.3517C3.84505 18.5967 8.13675 22.5291 12.9931 22.4966Z" fill="#0052FF"/>
<path d="M12.9952 22.4983C8.13886 22.5307 3.84717 18.5983 3.84259 13.3542C3.83802 8.15657 8.07943 4.16309 13.065 4.19177C18.0629 4.21962 22.1952 8.29207 22.1767 13.382C22.158 18.4983 17.958 22.5398 12.9952 22.4983ZM12.9994 10.4495H11.1512C10.985 10.4495 10.8187 10.4461 10.6525 10.452C10.3472 10.4628 10.1373 10.6683 10.1148 10.9736C10.1098 11.0426 10.1111 11.112 10.1111 11.1814C10.1111 12.627 10.1111 14.0725 10.1111 15.5178C10.1111 15.5938 10.11 15.6703 10.1169 15.7464C10.1423 16.0207 10.3413 16.2194 10.6138 16.2427C10.6894 16.2491 10.7659 16.2483 10.8424 16.2483C11.5074 16.2483 12.172 16.2483 12.836 16.2483C13.6528 16.2483 14.4695 16.2506 15.2862 16.247C15.7019 16.2452 15.9115 16.0317 15.9134 15.6211C15.9151 15.2337 15.9134 14.8463 15.9134 14.4591C15.9134 13.3456 15.9134 12.2321 15.9134 11.1186C15.9134 11.0297 15.9134 10.9366 15.8889 10.8524C15.8155 10.5993 15.6102 10.4532 15.3257 10.452C14.5499 10.4476 13.7745 10.4501 12.9994 10.4501V10.4495Z" fill="white"/>
<path d="M12.9994 10.4501C13.7745 10.4501 14.5499 10.4482 15.3251 10.4501C15.6096 10.4513 15.8149 10.5974 15.8883 10.8506C15.9126 10.9337 15.9128 11.0278 15.9128 11.1168C15.9145 12.2303 15.9145 13.3438 15.9128 14.4573C15.9128 14.8445 15.9141 15.2318 15.9128 15.6192C15.9109 16.0299 15.7008 16.2427 15.2856 16.2452C14.4689 16.2487 13.6521 16.2464 12.8354 16.2464C12.1704 16.2464 11.5058 16.2464 10.8418 16.2464C10.7657 16.2464 10.6892 16.2464 10.6132 16.2408C10.3407 16.2175 10.1416 16.0189 10.1163 15.7445C10.1094 15.6691 10.1105 15.5926 10.1105 15.5159C10.1105 14.0706 10.1105 12.6251 10.1105 11.1795C10.1105 11.1105 10.1092 11.0411 10.1142 10.9717C10.1366 10.6664 10.3465 10.4609 10.6518 10.4501C10.8181 10.4443 10.9843 10.4476 11.1506 10.4476H12.9987L12.9994 10.4501Z" fill="#0052FF"/>
</g>
<g clip-path="url(#clip1_577_26121)">
<path d="M49.8393 10.2586C46.9923 10.2586 44.7677 12.42 44.7677 15.3138C44.7677 18.2076 46.9349 20.3493 49.8393 20.3493C52.7438 20.3493 54.9488 18.1694 54.9488 15.2942C54.9474 12.4368 52.7792 10.2586 49.8393 10.2586ZM49.8586 18.264C48.2375 18.264 47.0494 17.005 47.0494 15.3138C47.0494 13.6036 48.2186 12.345 49.8393 12.345C51.48 12.345 52.6675 13.6229 52.6675 15.3138C52.6675 17.0047 51.4787 18.264 49.8572 18.264H49.8586ZM55.5692 12.4575H56.9836V20.1623H59.246V10.4464H55.5692V12.4575ZM39.0729 12.3443C40.2611 12.3443 41.205 13.0771 41.5616 14.1669H43.9561C43.5221 11.8371 41.5991 10.2586 39.0922 10.2586C36.2451 10.2586 34.0205 12.42 34.0205 15.3138C34.0205 18.2076 36.1891 20.35 39.0922 20.35C41.5431 20.35 43.5036 18.7712 43.9376 16.4221H41.5616C41.2222 17.5123 40.2796 18.264 39.0915 18.264C37.4508 18.264 36.3012 17.005 36.3012 15.3138C36.3019 13.6036 37.4333 12.3443 39.0729 12.3443ZM98.5544 14.3733L96.8955 14.1294C96.1045 14.017 95.5382 13.7539 95.5382 13.1322C95.5382 12.4554 96.2737 12.1177 97.2724 12.1177C98.3659 12.1177 99.0637 12.5871 99.2147 13.3574H101.401C101.156 11.4034 99.6476 10.2573 97.3295 10.2573C94.9346 10.2573 93.351 11.4788 93.351 13.2075C93.351 14.8609 94.3882 15.821 96.4804 16.1199L98.1393 16.364C98.9502 16.4765 99.4028 16.7966 99.4028 17.3977C99.4028 18.1681 98.6118 18.4875 97.5176 18.4875C96.1788 18.4875 95.4247 17.9425 95.3115 17.1161H93.0869C93.2933 19.014 94.7837 20.3486 97.4983 20.3486C99.9685 20.3486 101.608 19.221 101.608 17.2853C101.608 15.5579 100.421 14.6559 98.5544 14.3739V14.3733ZM58.1146 6.44389C57.2852 6.44389 56.6628 7.045 56.6628 7.87171C56.6628 8.69842 57.2845 9.29953 58.1146 9.29953C58.9448 9.29953 59.5669 8.69842 59.5669 7.87171C59.5669 7.045 58.9441 6.44389 58.1146 6.44389ZM91.3152 13.7728C91.3152 11.6686 90.0332 10.2593 87.3182 10.2593C84.7545 10.2593 83.3216 11.5561 83.0386 13.5483H85.2824C85.3952 12.7776 85.9987 12.1383 87.2807 12.1383C88.431 12.1383 88.9964 12.6456 88.9964 13.2659C88.9964 14.0741 87.9592 14.2804 86.6772 14.4121C84.943 14.5999 82.7937 15.201 82.7937 17.4562C82.7937 19.2042 84.095 20.3311 86.1686 20.3311C87.79 20.3311 88.8079 19.6547 89.3172 18.5831C89.3929 19.5415 90.1082 20.1619 91.1089 20.1619H92.4284V18.1516H91.3159V13.7728H91.3152ZM89.0906 16.2144C89.0906 17.5116 87.9592 18.4696 86.5826 18.4696C85.7339 18.4696 85.0176 18.1127 85.0176 17.3613C85.0176 16.4032 86.1679 16.1398 87.2237 16.0274C88.2419 15.9335 88.8073 15.7079 89.0906 15.2756V16.2144ZM77.0811 10.2586C75.8176 10.2586 74.7619 10.7851 74.0077 11.6686V6.35001H71.745V20.1623H73.9696V18.8844C74.7237 19.805 75.7987 20.35 77.0807 20.35C79.7954 20.35 81.8508 18.2079 81.8508 15.3138C81.8508 12.4196 79.7575 10.2586 77.0811 10.2586ZM76.7416 18.264C75.1206 18.264 73.9324 17.005 73.9324 15.3138C73.9324 13.6225 75.1388 12.345 76.7602 12.345C78.4009 12.345 79.5505 13.6043 79.5505 15.3138C79.5512 17.005 78.3631 18.264 76.7416 18.264ZM66.3346 10.2586C64.8638 10.2586 63.9023 10.8598 63.3366 11.7057V10.4464H61.0927V20.1616H63.3541V14.8812C63.3541 13.3966 64.2967 12.3443 65.6925 12.3443C66.9935 12.3443 67.804 13.2649 67.804 14.5995V20.1623H70.0661V14.4314C70.0671 11.9874 68.8044 10.2586 66.3346 10.2586ZM112.392 14.9943C112.392 12.2136 110.357 10.2593 107.622 10.2593C104.719 10.2593 102.589 12.4389 102.589 15.3145C102.589 18.3407 104.87 20.3507 107.66 20.3507C110.017 20.3507 111.865 18.9597 112.337 16.9871H109.98C109.641 17.8513 108.811 18.3403 107.699 18.3403C106.246 18.3403 105.154 17.438 104.908 15.8595H112.392V14.9943ZM105.039 14.2426C105.398 12.8894 106.415 12.2319 107.584 12.2319C108.866 12.2319 109.846 12.9647 110.073 14.2426H105.039Z" fill="#0052FF"/>
<path d="M118.897 10.4271L121.083 17.7103L123.202 10.4271H124.65L126.773 17.7255L128.96 10.4271H130.491L127.624 20.3139H126.217L123.935 12.1163L121.64 20.3139H120.233L117.379 10.4271H118.897Z" fill="#0052FF"/>
<path d="M133.614 10.4271H135.227L139.046 20.3139H137.484L136.418 17.7571H132.253L131.113 20.3139H129.651L133.614 10.4271ZM135.958 16.6666L134.36 11.8941L132.661 16.6666H135.958Z" fill="#0052FF"/>
<path d="M140.567 10.4271H141.907V18.9989H146.867V20.1705H140.567V10.4271Z" fill="#0052FF"/>
<path d="M148.514 10.4271H149.855V18.9989H154.815V20.1705H148.514V10.4271Z" fill="#0052FF"/>
<path d="M156.485 10.4271H163.063V11.6386H157.791V14.6401H162.757V15.7846H157.791V18.9989H163.164V20.1705H156.485V10.4271Z" fill="#0052FF"/>
<path d="M172.28 10.4271V11.6049H168.949V20.3139H167.596V11.6049H164.264V10.4271H172.28Z" fill="#0052FF"/>
</g>
<defs>
<clipPath id="clip0_577_26121">
<rect width="26.0205" height="26" fill="white" transform="translate(0 0.350006)"/>
</clipPath>
<clipPath id="clip1_577_26121">
<rect width="138.26" height="14" fill="white" transform="translate(34.0205 6.35001)"/>
</clipPath>
</defs>
</svg>
