<svg width="376" height="89" viewBox="0 0 376 89" fill="none" xmlns="http://www.w3.org/2000/svg">
<path d="M122.87 33.7846H112.508V27.6776H140.725V33.7846H130.363V60.0596H122.87V33.7846ZM147.824 38.4566C148.687 37.2536 149.844 36.3436 151.293 35.7266C152.773 35.1106 154.469 34.8016 156.381 34.8016V41.4636C155.58 41.4016 155.04 41.3706 154.762 41.3706C152.696 41.3706 151.077 41.9566 149.905 43.1286C148.733 44.2696 148.147 45.9966 148.147 48.3096V60.0596H140.931V35.1716H147.824V38.4566ZM183.15 35.1716V60.0596H176.303V57.0986C175.347 58.1776 174.206 59.0106 172.88 59.5966C171.554 60.1516 170.12 60.4296 168.578 60.4296C165.309 60.4296 162.719 59.4886 160.807 57.6076C158.895 55.7266 157.939 52.9356 157.939 49.2346V35.1716H165.155V48.1706C165.155 52.1796 166.836 54.1846 170.197 54.1846C171.924 54.1846 173.312 53.6296 174.361 52.5186C175.409 51.3776 175.933 49.6976 175.933 47.4766V35.1716H183.15ZM195.433 60.4296C193.366 60.4296 191.346 60.1826 189.373 59.6896C187.399 59.1646 185.826 58.5176 184.654 57.7466L187.06 52.5656C188.17 53.2746 189.511 53.8606 191.084 54.3226C192.657 54.7546 194.199 54.9706 195.71 54.9706C198.763 54.9706 200.29 54.2156 200.29 52.7036C200.29 51.9946 199.873 51.4856 199.041 51.1776C198.208 50.8696 196.928 50.6066 195.201 50.3906C193.166 50.0826 191.485 49.7276 190.159 49.3276C188.833 48.9266 187.677 48.2166 186.69 47.1996C185.734 46.1816 185.256 44.7326 185.256 42.8506C185.256 41.2786 185.703 39.8906 186.597 38.6876C187.522 37.4536 188.848 36.4976 190.575 35.8196C192.333 35.1416 194.399 34.8016 196.774 34.8016C198.532 34.8016 200.274 35.0026 202.001 35.4036C203.759 35.7736 205.209 36.2976 206.35 36.9756L203.944 42.1106C201.755 40.8776 199.365 40.2606 196.774 40.2606C195.232 40.2606 194.076 40.4766 193.305 40.9076C192.534 41.3396 192.148 41.8946 192.148 42.5736C192.148 43.3446 192.565 43.8836 193.397 44.1926C194.23 44.5006 195.556 44.7936 197.375 45.0716C199.411 45.4106 201.076 45.7806 202.371 46.1816C203.667 46.5516 204.792 47.2456 205.748 48.2636C206.704 49.2806 207.182 50.6996 207.182 52.5186C207.182 54.0606 206.72 55.4336 205.795 56.6356C204.869 57.8386 203.512 58.7796 201.724 59.4576C199.966 60.1056 197.869 60.4296 195.433 60.4296ZM224.911 58.8566C224.202 59.3806 223.323 59.7816 222.274 60.0596C221.257 60.3056 220.177 60.4296 219.036 60.4296C216.076 60.4296 213.778 59.6736 212.144 58.1626C210.54 56.6516 209.738 54.4306 209.738 51.5016V41.2786H205.899V35.7266H209.738V29.6676H216.954V35.7266H223.153V41.2786H216.954V51.4086C216.954 52.4576 217.217 53.2746 217.741 53.8606C218.296 54.4156 219.067 54.6936 220.054 54.6936C221.195 54.6936 222.166 54.3846 222.968 53.7676L224.911 58.8566ZM285.962 27.6776L275.369 60.0596H267.32L260.196 38.1326L252.841 60.0596H244.838L234.199 27.6776H241.97L249.279 50.4376L256.912 27.6776H263.85L271.252 50.6226L278.792 27.6776H285.962ZM295.047 34.8016C298.902 34.8016 301.863 35.7266 303.929 37.5776C305.995 39.3966 307.028 42.1566 307.028 45.8576V60.0596H300.274V56.9596C298.918 59.2726 296.389 60.4296 292.688 60.4296C290.776 60.4296 289.111 60.1056 287.692 59.4576C286.304 58.8106 285.24 57.9156 284.5 56.7746C283.76 55.6336 283.39 54.3386 283.39 52.8886C283.39 50.5766 284.254 48.7566 285.981 47.4306C287.738 46.1046 290.437 45.4416 294.076 45.4416H299.812C299.812 43.8686 299.334 42.6656 298.378 41.8336C297.422 40.9696 295.988 40.5376 294.076 40.5376C292.75 40.5376 291.439 40.7536 290.144 41.1856C288.879 41.5866 287.8 42.1416 286.906 42.8506L284.315 37.8086C285.672 36.8526 287.291 36.1126 289.172 35.5886C291.084 35.0636 293.043 34.8016 295.047 34.8016ZM294.492 55.5716C295.726 55.5716 296.821 55.2946 297.777 54.7396C298.733 54.1536 299.411 53.3056 299.812 52.1956V49.6506H294.862C291.902 49.6506 290.421 50.6226 290.421 52.5656C290.421 53.4906 290.776 54.2306 291.485 54.7856C292.225 55.3096 293.228 55.5716 294.492 55.5716ZM310.784 25.7356H318V60.0596H310.784V25.7356ZM321.922 25.7356H329.139V60.0596H321.922V25.7356ZM357.439 47.7076C357.439 47.8006 357.393 48.4486 357.3 49.6506H338.473C338.812 51.1926 339.614 52.4106 340.878 53.3056C342.143 54.1996 343.715 54.6466 345.597 54.6466C346.892 54.6466 348.033 54.4616 349.02 54.0916C350.037 53.6906 350.978 53.0746 351.841 52.2416L355.681 56.4046C353.337 59.0876 349.914 60.4296 345.412 60.4296C342.605 60.4296 340.123 59.8896 337.964 58.8106C335.805 57.6996 334.14 56.1736 332.968 54.2306C331.796 52.2876 331.21 50.0826 331.21 47.6156C331.21 45.1796 331.781 42.9896 332.922 41.0466C334.094 39.0736 335.682 37.5466 337.686 36.4676C339.722 35.3566 341.988 34.8016 344.486 34.8016C346.923 34.8016 349.128 35.3266 351.101 36.3746C353.075 37.4236 354.617 38.9346 355.727 40.9076C356.868 42.8506 357.439 45.1176 357.439 47.7076ZM344.533 40.2606C342.898 40.2606 341.526 40.7226 340.416 41.6486C339.305 42.5736 338.627 43.8376 338.38 45.4416H350.639C350.392 43.8686 349.714 42.6196 348.603 41.6946C347.493 40.7386 346.136 40.2606 344.533 40.2606ZM375.519 58.8566C374.81 59.3806 373.931 59.7816 372.883 60.0596C371.865 60.3056 370.786 60.4296 369.645 60.4296C366.684 60.4296 364.387 59.6736 362.752 58.1626C361.148 56.6516 360.347 54.4306 360.347 51.5016V41.2786H356.507V35.7266H360.347V29.6676H367.563V35.7266H373.762V41.2786H367.563V51.4086C367.563 52.4576 367.825 53.2746 368.349 53.8606C368.904 54.4156 369.675 54.6936 370.662 54.6936C371.803 54.6936 372.775 54.3846 373.577 53.7676L375.519 58.8566Z" fill="#3375BB"/>
<path d="M0 44.3516C0 19.8566 19.8569 0 44.3514 0C68.8464 0 88.7034 19.8566 88.7034 44.3516C88.7034 68.8466 68.8464 88.7036 44.3514 88.7036C19.8569 88.7036 0 68.8466 0 44.3516Z" fill="white"/>
<path d="M44.3774 17.8446C53.3274 25.3196 63.5914 24.8586 66.5234 24.8586C65.8824 67.3686 60.9944 58.9386 44.3774 70.8586C27.7607 58.9386 22.9039 67.3686 22.2625 24.8586C25.1643 24.8586 35.4277 25.3196 44.3774 17.8446Z" stroke="#3375BB" stroke-width="6.06304" stroke-miterlimit="10" stroke-linecap="round" stroke-linejoin="round"/>
</svg>
