<svg width="138" height="22" viewBox="0 0 138 22" fill="none" xmlns="http://www.w3.org/2000/svg">
<path fill-rule="evenodd" clip-rule="evenodd" d="M49.8471 12.0471L47.952 18.7199H45.9806L43.3386 8.95514H45.4995L47.0697 16.0261H47.1251L48.9928 8.95514H50.7568L52.6281 16.0261H52.6835L54.2602 8.95514H56.4254L53.7762 18.7199H51.8048L49.9126 12.0471H49.8471ZM59.3029 17.4065C60.1817 17.4065 60.9077 16.8428 60.9077 16.0599V15.5322L59.3483 15.6273C58.5942 15.6815 58.1656 16.0127 58.1656 16.5271C58.162 17.0697 58.6187 17.4065 59.3029 17.4065ZM58.6388 18.8348C57.2278 18.8348 56.156 17.9413 56.156 16.6356C56.156 15.3158 57.1932 14.5513 59.0372 14.4428L60.9048 14.3343V13.8544C60.9048 13.1773 60.4208 12.7848 59.6602 12.7848C58.8996 12.7848 58.4285 13.1505 58.332 13.6853H56.4881C56.5637 12.2761 57.7882 11.31 59.7531 11.31C61.6554 11.31 62.8935 12.2704 62.8935 13.7325V18.7199H60.9423V17.6101H60.9012C60.4864 18.381 59.5644 18.8348 58.6388 18.8348ZM64.2419 18.7199V8.95514H66.2587V18.7199H64.2419ZM67.6733 18.7199V8.95514H69.6901V18.7199H67.6733ZM74.3827 12.7714C73.4975 12.7714 72.8608 13.4281 72.7916 14.3343H75.9393C75.8975 13.4056 75.2816 12.7714 74.3827 12.7714ZM75.9674 16.5003H77.8214C77.6002 17.9209 76.272 18.8749 74.436 18.8749C72.1535 18.8749 70.7835 17.4474 70.7835 15.1263C70.7835 12.8052 72.1672 11.31 74.3597 11.31C76.5205 11.31 77.8804 12.7376 77.8804 14.9438V15.5456H72.7664V15.6675C72.7664 16.7033 73.4377 17.4135 74.4685 17.4135C75.2125 17.4135 75.7801 17.0549 75.9666 16.5003H75.9674ZM79.4607 9.79436H81.4775V11.4657H82.846V12.9539H81.4775V16.4256C81.4775 16.9802 81.7541 17.2444 82.349 17.2444C82.5134 17.2453 82.6776 17.234 82.8403 17.2106V18.6657C82.5235 18.7252 82.2012 18.7523 81.8787 18.7467C80.1356 18.7467 79.4578 18.1781 79.4578 16.7639V12.9539H78.4134V11.4657H79.4578L79.4607 9.79436ZM88.5427 18.889C85.6378 18.889 83.8184 16.9865 83.8184 13.834C83.8184 10.6815 85.6515 8.78603 88.5427 8.78603C90.9434 8.78603 92.7694 10.2742 92.9285 12.46H90.8966C90.7036 11.2621 89.7629 10.4771 88.5449 10.4771C86.9682 10.4771 85.9519 11.7701 85.9519 13.827C85.9519 15.9113 86.9552 17.1972 88.5528 17.1972C89.791 17.1972 90.6834 16.4862 90.9045 15.3292H92.9386C92.6973 17.5087 90.991 18.889 88.542 18.889H88.5427ZM97.4526 18.8749C95.2111 18.8749 93.7792 17.4657 93.7792 15.0854C93.7792 12.7376 95.232 11.31 97.4526 11.31C99.6732 11.31 101.126 12.7306 101.126 15.0854C101.125 17.4741 99.6927 18.8749 97.4512 18.8749H97.4526ZM97.4526 17.3663C98.4416 17.3663 99.0711 16.5475 99.0711 15.0925C99.0711 13.6515 98.4344 12.8186 97.4526 12.8186C96.4709 12.8186 95.8269 13.6515 95.8269 15.0925C95.8262 16.5475 96.4558 17.3663 97.4512 17.3663H97.4526ZM102.163 18.7199V11.4622H104.114V12.7545H104.155C104.55 11.8547 105.331 11.3269 106.473 11.3269C108.119 11.3269 109.046 12.3416 109.046 14.0405V18.7164H107.029V14.4562C107.029 13.5092 106.572 12.968 105.666 12.968C104.76 12.968 104.186 13.6177 104.186 14.5577V18.7199H102.163ZM110.325 18.7199V11.4622H112.276V12.7545H112.317C112.712 11.8547 113.493 11.3269 114.635 11.3269C116.281 11.3269 117.208 12.3416 117.208 14.0405V18.7164H115.191V14.4562C115.191 13.5092 114.734 12.968 113.828 12.968C112.922 12.968 112.348 13.6177 112.348 14.5577V18.7199H110.325ZM121.814 12.7714C120.929 12.7714 120.292 13.4281 120.223 14.3343H123.37C123.329 13.4056 122.713 12.7714 121.814 12.7714ZM123.399 16.5003H125.254C125.033 17.9209 123.705 18.8749 121.869 18.8749C119.586 18.8749 118.216 17.4474 118.216 15.1263C118.216 12.8052 119.6 11.31 121.792 11.31C123.953 11.31 125.313 12.7376 125.313 14.9438V15.5456H120.199V15.6675C120.199 16.7033 120.87 17.4135 121.901 17.4135C122.644 17.4135 123.211 17.0549 123.398 16.5003H123.399ZM133.09 14.1652H131.217C131.1 13.4007 130.581 12.8595 129.751 12.8595C128.755 12.8595 128.132 13.6853 128.132 15.0854C128.132 16.5137 128.755 17.3255 129.758 17.3255C130.567 17.3255 131.093 16.8519 131.217 16.0571H133.099C132.995 17.7694 131.688 18.8756 129.737 18.8756C127.504 18.8756 126.085 17.4551 126.085 15.0861C126.085 12.7609 127.503 11.3107 129.723 11.3107C131.726 11.31 132.999 12.5213 133.089 14.1652H133.09ZM134.611 9.79647H136.628V11.4679H137.997V12.956H136.628V16.4278C136.628 16.9823 136.905 17.2465 137.5 17.2465C137.664 17.2474 137.828 17.2361 137.991 17.2127V18.6678C137.674 18.7272 137.352 18.7544 137.029 18.7488C135.286 18.7488 134.608 18.1802 134.608 16.766V12.9539H133.563V11.4657H134.608L134.611 9.79647Z" fill="#5390CC"/>
<path d="M7.51193 4.2982C13.4953 -1.43257 23.1968 -1.43257 29.1808 4.2982L29.9011 4.98803C29.9722 5.05537 30.0288 5.13602 30.0674 5.22517C30.106 5.31432 30.1259 5.41016 30.1259 5.50699C30.1259 5.60382 30.106 5.69966 30.0674 5.78881C30.0288 5.87796 29.9722 5.95861 29.9011 6.02595L27.4399 8.38506C27.3674 8.4541 27.2703 8.49273 27.1691 8.49273C27.0679 8.49273 26.9708 8.4541 26.8983 8.38506L25.9072 7.43592C21.7331 3.43784 14.9647 3.43784 10.7906 7.43592L9.72967 8.4527C9.65689 8.52146 9.55966 8.55989 9.45849 8.55989C9.35731 8.55989 9.26008 8.52146 9.1873 8.4527L6.72394 6.09289C6.65302 6.02551 6.59665 5.94489 6.55815 5.85581C6.51965 5.76673 6.49981 5.671 6.49981 5.57428C6.49981 5.47757 6.51965 5.38184 6.55815 5.29276C6.59665 5.20368 6.65302 5.12306 6.72394 5.05568L7.51193 4.2982ZM34.2754 9.17777L36.4679 11.2776C36.5389 11.345 36.5953 11.4257 36.6338 11.5148C36.6723 11.604 36.6921 11.6998 36.6921 11.7965C36.6921 11.8933 36.6723 11.9891 36.6338 12.0782C36.5953 12.1674 36.5389 12.248 36.4679 12.3155L26.5814 21.785C26.4364 21.9221 26.2427 21.9987 26.0411 21.9987C25.8396 21.9987 25.6459 21.9221 25.5009 21.785L18.4847 15.0643C18.4483 15.03 18.3998 15.0108 18.3493 15.0108C18.2988 15.0108 18.2502 15.03 18.2139 15.0643L11.1969 21.785C11.052 21.9221 10.8583 21.9987 10.6567 21.9987C10.4551 21.9987 10.2614 21.9221 10.1165 21.785L0.224131 12.3155C0.153212 12.2481 0.0968336 12.1675 0.0583351 12.0784C0.0198365 11.9893 0 11.8936 0 11.7969C0 11.7002 0.0198365 11.6044 0.0583351 11.5154C0.0968336 11.4263 0.153212 11.3457 0.224131 11.2783L2.41666 9.17777C2.56185 9.04118 2.75545 8.96489 2.95688 8.96489C3.1583 8.96489 3.3519 9.04118 3.49709 9.17777L10.5133 15.8985C10.5495 15.9331 10.5981 15.9525 10.6488 15.9525C10.6994 15.9525 10.748 15.9331 10.7842 15.8985L17.804 9.17777C17.9492 9.04118 18.1428 8.96489 18.3442 8.96489C18.5457 8.96489 18.7393 9.04118 18.8844 9.17777L25.9007 15.8985C25.9369 15.9331 25.9855 15.9525 26.0361 15.9525C26.0867 15.9525 26.1353 15.9331 26.1715 15.8985L33.1921 9.17777C33.3372 9.03985 33.5315 8.9627 33.7337 8.9627C33.936 8.9627 34.1303 9.03985 34.2754 9.17777Z" fill="#558FCC"/>
</svg>
