<svg width="27" height="27" viewBox="0 0 27 27" fill="none" xmlns="http://www.w3.org/2000/svg">
<g clip-path="url(#clip0_577_26101)">
<path d="M13.0101 0.348354C20.1905 0.332768 26.0184 6.19144 26.0184 13.3513C26.0184 20.3314 20.4106 26.3582 12.9848 26.3484C5.74328 26.339 -0.0258161 20.5147 -0.00212456 13.3051C0.0221904 5.98445 5.97812 0.327572 13.0101 0.348354ZM12.9931 22.4966C17.9558 22.5382 22.1559 18.4967 22.1746 13.3804C22.1933 8.29043 18.0608 4.21798 13.0629 4.1893C8.07731 4.16062 3.83569 8.1541 3.84047 13.3517C3.84505 18.5967 8.13675 22.5291 12.9931 22.4966Z" fill="#0052FF"/>
<path d="M12.9952 22.4983C8.13886 22.5307 3.84717 18.5983 3.84259 13.3542C3.83802 8.15657 8.07943 4.16309 13.065 4.19177C18.0629 4.21962 22.1952 8.29207 22.1767 13.382C22.158 18.4983 17.958 22.5398 12.9952 22.4983ZM12.9994 10.4495H11.1512C10.985 10.4495 10.8187 10.4461 10.6525 10.452C10.3472 10.4628 10.1373 10.6683 10.1148 10.9736C10.1098 11.0426 10.1111 11.112 10.1111 11.1814C10.1111 12.627 10.1111 14.0725 10.1111 15.5178C10.1111 15.5938 10.11 15.6703 10.1169 15.7464C10.1423 16.0207 10.3413 16.2194 10.6138 16.2427C10.6894 16.2491 10.7659 16.2483 10.8424 16.2483C11.5074 16.2483 12.172 16.2483 12.836 16.2483C13.6528 16.2483 14.4695 16.2506 15.2862 16.247C15.7019 16.2452 15.9115 16.0317 15.9134 15.6211C15.9151 15.2337 15.9134 14.8463 15.9134 14.4591C15.9134 13.3456 15.9134 12.2321 15.9134 11.1186C15.9134 11.0297 15.9134 10.9366 15.8889 10.8524C15.8155 10.5993 15.6102 10.4532 15.3257 10.452C14.5499 10.4476 13.7745 10.4501 12.9994 10.4501V10.4495Z" fill="white"/>
<path d="M12.9994 10.4501C13.7745 10.4501 14.5499 10.4482 15.3251 10.4501C15.6096 10.4513 15.8149 10.5974 15.8883 10.8506C15.9126 10.9337 15.9128 11.0278 15.9128 11.1168C15.9145 12.2303 15.9145 13.3438 15.9128 14.4573C15.9128 14.8445 15.9141 15.2318 15.9128 15.6192C15.9109 16.0299 15.7008 16.2427 15.2856 16.2452C14.4689 16.2487 13.6521 16.2464 12.8354 16.2464C12.1704 16.2464 11.5058 16.2464 10.8418 16.2464C10.7657 16.2464 10.6892 16.2464 10.6132 16.2408C10.3407 16.2175 10.1416 16.0189 10.1163 15.7445C10.1094 15.6691 10.1105 15.5926 10.1105 15.5159C10.1105 14.0706 10.1105 12.6251 10.1105 11.1795C10.1105 11.1105 10.1092 11.0411 10.1142 10.9717C10.1366 10.6664 10.3465 10.4609 10.6518 10.4501C10.8181 10.4443 10.9843 10.4476 11.1506 10.4476H12.9987L12.9994 10.4501Z" fill="#0052FF"/>
</g>
<defs>
<clipPath id="clip0_577_26101">
<rect width="26.0205" height="26" fill="white" transform="translate(0 0.350006)"/>
</clipPath>
</defs>
</svg>
