<svg width="37" height="22" viewBox="0 0 37 22" fill="none" xmlns="http://www.w3.org/2000/svg">
<path d="M7.51193 4.29807C13.4953 -1.43269 23.1968 -1.43269 29.1808 4.29807L29.9011 4.98791C29.9722 5.05525 30.0288 5.1359 30.0674 5.22505C30.106 5.3142 30.1259 5.41004 30.1259 5.50687C30.1259 5.6037 30.106 5.69954 30.0674 5.78869C30.0288 5.87784 29.9722 5.95849 29.9011 6.02583L27.4399 8.38494C27.3674 8.45398 27.2703 8.49261 27.1691 8.49261C27.0679 8.49261 26.9708 8.45398 26.8983 8.38494L25.9072 7.4358C21.7331 3.43772 14.9647 3.43772 10.7906 7.4358L9.72967 8.45258C9.65689 8.52134 9.55967 8.55976 9.45849 8.55976C9.35731 8.55976 9.26008 8.52134 9.1873 8.45258L6.72394 6.09277C6.65302 6.02539 6.59665 5.94477 6.55815 5.85569C6.51965 5.76661 6.49981 5.67088 6.49981 5.57416C6.49981 5.47745 6.51965 5.38172 6.55815 5.29264C6.59665 5.20355 6.65302 5.12294 6.72394 5.05555L7.51193 4.29807ZM34.2754 9.17765L36.4679 11.2774C36.5389 11.3449 36.5953 11.4256 36.6338 11.5147C36.6723 11.6038 36.6921 11.6996 36.6921 11.7964C36.6921 11.8932 36.6723 11.989 36.6338 12.0781C36.5953 12.1672 36.5389 12.2479 36.4679 12.3154L26.5814 21.7849C26.4364 21.922 26.2427 21.9986 26.0411 21.9986C25.8396 21.9986 25.6459 21.922 25.5009 21.7849V21.7849L18.4847 15.0641C18.4483 15.0299 18.3998 15.0107 18.3493 15.0107C18.2988 15.0107 18.2502 15.0299 18.2139 15.0641V15.0641L11.1969 21.7849C11.052 21.922 10.8583 21.9986 10.6567 21.9986C10.4551 21.9986 10.2614 21.922 10.1165 21.7849V21.7849L0.224131 12.3154C0.153212 12.248 0.0968336 12.1674 0.0583351 12.0783C0.0198365 11.9892 0 11.8935 0 11.7968C0 11.7 0.0198365 11.6043 0.0583351 11.5152C0.0968336 11.4262 0.153212 11.3455 0.224131 11.2782L2.41666 9.17765C2.56185 9.04106 2.75545 8.96477 2.95688 8.96477C3.1583 8.96477 3.3519 9.04106 3.49709 9.17765L10.5133 15.8984C10.5495 15.933 10.5981 15.9524 10.6488 15.9524C10.6994 15.9524 10.748 15.933 10.7842 15.8984V15.8984L17.804 9.17765C17.9492 9.04106 18.1428 8.96477 18.3442 8.96477C18.5457 8.96477 18.7393 9.04106 18.8844 9.17765V9.17765L25.9007 15.8984C25.9369 15.933 25.9855 15.9524 26.0361 15.9524C26.0867 15.9524 26.1353 15.933 26.1715 15.8984L33.1921 9.17765C33.3372 9.03973 33.5315 8.96258 33.7337 8.96258C33.936 8.96258 34.1303 9.03973 34.2754 9.17765V9.17765Z" fill="#558FCC"/>
</svg>
